<svg width="21" height="40" viewBox="0 0 21 40" fill="none" xmlns="http://www.w3.org/2000/svg">
<path id="Vector" d="M17.7912 1.38457V19.8332H21V21.2178H17.7912V38.6161H21V40.0006H16.6442V0H21V1.38457H17.7912ZM9.70806 19.8332H9.93335V40.0006H8.78636V30.1377H6.72821V40.0006H5.58123V19.8332H9.70806ZM8.78636 28.7532V21.2178H6.72821V28.7532H8.78636ZM11.9236 9.83114H11.0814V40.0006H15.4772V38.6161H12.2284V11.2151H15.4772V9.8305L11.9236 9.83114ZM2.23291 34.4852H1.14699V40.0006H0V27.0973H4.36318V34.4852H3.402L4.31686 40.0006H3.14724L2.23291 34.4852ZM1.14699 33.1007H3.21672V28.4812H1.14699V33.1007Z" fill="url(#paint0_linear_32832_6788)"/>
<defs>
<linearGradient id="paint0_linear_32832_6788" x1="0" y1="20.0003" x2="21" y2="20.0003" gradientUnits="userSpaceOnUse">
<stop stop-color="#B67F5A"/>
<stop offset="0.17" stop-color="#E2AF8B"/>
<stop offset="0.29" stop-color="#F9C8A4"/>
<stop offset="0.52" stop-color="#D49E86"/>
<stop offset="1" stop-color="#945B3A"/>
</linearGradient>
</defs>
</svg>
